<?xml version="1.0" encoding="utf-8"?>
<!-- Generator: Adobe Illustrator 26.0.2, SVG Export Plug-In . SVG Version: 6.00 Build 0)  -->
<svg version="1.1" id="Layer_1" xmlns="http://www.w3.org/2000/svg" xmlns:xlink="http://www.w3.org/1999/xlink" x="0px" y="0px"
	 viewBox="0 0 229.3 222.6" style="enable-background:new 0 0 229.3 222.6;" xml:space="preserve">
<style type="text/css">
	.st0{fill:#EBE9EA;}
	.st1{fill:#ECEAEB;}
	.st2{fill:#EDEBEC;}
	.st3{fill:#EEECED;}
	.st4{fill:#EEEDEE;}
	.st5{fill:#EFEEEF;}
	.st6{fill:#F0EFEF;}
	.st7{fill:#F1F0F0;}
	.st8{fill:#F2F1F1;}
	.st9{fill:#F3F2F2;}
	.st10{fill:#F4F3F3;}
	.st11{fill:#F5F4F4;}
	.st12{fill:#F5F4F5;}
	.st13{fill:#F6F5F6;}
	.st14{fill:#F7F6F7;}
	.st15{fill:#F8F7F8;}
	.st16{fill:#F9F8F9;}
	.st17{fill:#FAF9FA;}
	.st18{fill:#FBFAFA;}
	.st19{fill:#FCFBFB;}
	.st20{fill:#FCFCFC;}
	.st21{fill:#FDFDFD;}
	.st22{fill:#FEFEFE;}
	.st23{fill:#FFFFFF;}
	.st24{fill:#0049FF;}
</style>
<g>
	<g>
		<g>
			<circle class="st0" cx="97" cy="96.9" r="92.2"/>
			<circle class="st1" cx="99.6" cy="98.7" r="91.2"/>
			<circle class="st2" cx="102.2" cy="100.5" r="90.2"/>
			<circle class="st3" cx="104.7" cy="102.2" r="89.1"/>
			<circle class="st4" cx="107.3" cy="104" r="88.1"/>
			<circle class="st5" cx="109.9" cy="105.7" r="87.1"/>
			<circle class="st6" cx="112.4" cy="107.5" r="86"/>
			<circle class="st7" cx="115" cy="109.3" r="85"/>
			<circle class="st8" cx="117.6" cy="111" r="83.9"/>
			<circle class="st9" cx="120.1" cy="112.8" r="82.9"/>
			<circle class="st10" cx="122.7" cy="114.5" r="81.9"/>
			<circle class="st11" cx="125.3" cy="116.3" r="80.8"/>
			<circle class="st12" cx="127.8" cy="118.1" r="79.8"/>
			<circle class="st13" cx="130.4" cy="119.8" r="78.8"/>
			<circle class="st14" cx="133" cy="121.6" r="77.7"/>
			<circle class="st15" cx="135.5" cy="123.3" r="76.7"/>
			<circle class="st16" cx="138.1" cy="125.1" r="75.6"/>
			<circle class="st17" cx="140.7" cy="126.9" r="74.6"/>
			<circle class="st18" cx="143.2" cy="128.6" r="73.6"/>
			<circle class="st19" cx="145.8" cy="130.4" r="72.5"/>
			<circle class="st20" cx="148.4" cy="132.2" r="71.5"/>
			<circle class="st21" cx="150.9" cy="133.9" r="70.5"/>
			<circle class="st22" cx="153.5" cy="135.7" r="69.4"/>
			<circle class="st23" cx="156.1" cy="137.4" r="68.4"/>
		</g>
	</g>
	<circle class="st24" cx="25.8" cy="206.7" r="11.2"/>
</g>
</svg>
